<svg width="128" height="128" viewBox="0 0 1024 1024" xmlns="http://www.w3.org/2000/svg" xmlns:xlink="http://www.w3.org/1999/xlink" overflow="hidden"><defs></defs><path d="M112 16 848 16 848 1008 112 1008Z" fill="#EDF2F9"/><path d="M392.176 846.08C400.208 850.608 410.384 848.112 414.88 840.464L574.224 583.968C578.72 576.336 575.872 566.464 567.84 561.92 559.808 557.376 549.632 559.888 545.136 567.536L385.792 824.032C381.28 831.664 384.144 841.536 392.176 846.08ZM596.576 795.408C602.765 801.616 612.815 801.631 619.022 795.442 619.034 795.43 619.045 795.419 619.056 795.408L698.4 716.064C698.736 715.776 699.152 715.68 699.456 715.36 702.495 712.308 704.154 708.146 704.048 703.84 704.063 699.619 702.386 695.567 699.392 692.592 699.184 692.384 698.912 692.304 698.688 692.128L619.088 612.528C612.885 606.325 602.827 606.325 596.624 612.528 590.421 618.731 590.421 628.789 596.624 634.992L665.568 703.936 596.576 772.928C590.368 779.13 590.363 789.189 596.565 795.397 596.569 795.401 596.572 795.404 596.576 795.408ZM261.552 716.032 340.928 795.408C347.096 801.611 357.126 801.639 363.329 795.471 363.35 795.45 363.371 795.429 363.392 795.408 369.595 789.24 369.623 779.21 363.455 773.007 363.434 772.986 363.413 772.965 363.392 772.944L294.4 703.952 363.344 635.008C369.547 628.805 369.547 618.747 363.344 612.544 357.141 606.341 347.083 606.341 340.88 612.544L261.312 692.112C261.088 692.32 260.784 692.4 260.576 692.608 257.588 695.594 255.913 699.648 255.92 703.872 255.821 708.175 257.486 712.331 260.528 715.376 260.832 715.664 261.232 715.76 261.552 716.032ZM896 128 864 128 864 32C864 14.3269 849.673 0 832 0L128 0C110.327 0 96 14.3269 96 32L96 992C96 1009.67 110.327 1024 128 1024L832 1024C849.673 1024 864 1009.67 864 992L864 416 896 416C913.673 416 928 401.673 928 384L928 160C928 142.327 913.673 128 896 128ZM832 128 352 128C334.327 128 320 142.327 320 160L320 384C320 401.673 334.327 416 352 416L832 416 832 992 128 992 128 32 832 32 832 128Z" fill="#8592A5"/><path d="M504.992 328 477.792 328 477.792 278.72 430.432 278.72 430.432 328 403.232 328 403.232 211.44 430.432 211.44 430.432 260.16 477.792 260.16 477.792 211.44 504.992 211.44 504.992 328ZM608.832 211.44 608.832 232.88 576.032 232.88 576.032 328 549.008 328 549.008 232.88 516.208 232.88 516.208 211.44 608.832 211.44ZM682.72 281.024C683.712 283.216 684.64 285.456 685.552 287.744 687.323 283.212 689.326 278.774 691.552 274.448L721.472 215.504C721.892 214.637 722.448 213.842 723.12 213.152 724.228 212.015 725.775 211.414 727.36 211.504L751.072 211.504 751.072 327.984 727.232 327.984 727.232 260.944C727.232 257.696 727.392 254.176 727.712 250.384L696.816 310.304C695.856 312.176 694.56 313.584 692.944 314.544 691.328 315.504 689.456 315.984 687.376 315.984L683.712 315.984C679.715 316.124 676.01 313.898 674.256 310.304L643.232 250.304C643.616 253.838 643.83 257.389 643.872 260.944L643.872 327.984 620.032 327.984 620.032 211.504 643.744 211.504C644.608 211.504 645.408 211.632 646.096 211.904 646.784 212.176 647.424 212.576 647.968 213.152 648.626 213.854 649.181 214.646 649.616 215.504L679.616 274.688C680.704 276.736 681.712 278.848 682.72 281.024ZM797.312 306.4 840.512 306.4 840.512 328 770.256 328 770.256 211.44 797.296 211.44 797.296 306.4Z" fill="#FFFFFF"/></svg>