<svg width="128" height="128" viewBox="0 0 1024 1024" xmlns="http://www.w3.org/2000/svg" xmlns:xlink="http://www.w3.org/1999/xlink" overflow="hidden"><defs></defs><path d="M896 853.333C896 900.267 857.6 938.667 810.667 938.667L213.333 938.667C166.4 938.667 128 900.267 128 853.333L128 170.667C128 123.733 166.4 85.3333 213.333 85.3333L640 85.3333 896 341.333 896 853.333Z" fill="#FEAB00"/><path d="M388.267 729.6C418.133 729.6 435.2 721.067 448 708.267 460.8 695.467 465.067 674.133 465.067 644.267L465.067 477.867 426.667 477.867 426.667 640C426.667 657.067 422.4 669.867 418.133 678.4 413.867 686.933 401.067 691.2 388.267 691.2 362.667 691.2 354.133 678.4 354.133 648.533L354.133 640 315.733 640 315.733 648.533C315.733 674.133 324.267 691.2 337.067 704 345.6 725.333 366.933 729.6 388.267 729.6ZM605.867 729.6C635.733 729.6 661.333 721.067 678.4 712.533 695.467 699.733 704 682.667 704 661.333 704 640 695.467 622.933 674.133 610.133 665.6 605.867 644.267 597.333 610.133 584.533 588.8 576 571.733 571.733 567.467 567.467 554.667 563.2 550.4 554.667 550.4 541.867 550.4 529.067 554.667 520.533 567.467 516.267 576 512 588.8 507.733 601.6 507.733 618.667 507.733 631.467 512 640 516.267 648.533 524.8 657.067 533.333 657.067 550.4L695.467 550.4C691.2 524.8 682.667 503.467 665.6 490.667 648.533 477.867 627.2 473.6 597.333 473.6 571.733 473.6 550.4 477.867 533.333 490.667 516.267 503.467 507.733 520.533 507.733 541.867 507.733 563.2 516.267 580.267 537.6 593.067 546.133 597.333 563.2 605.867 593.067 614.4 618.667 622.933 635.733 627.2 640 631.467 657.067 640 661.333 648.533 661.333 661.333 661.333 669.867 657.067 678.4 644.267 686.933 635.733 691.2 618.667 695.467 601.6 695.467 580.267 695.467 567.467 691.2 558.933 686.933 550.4 678.4 541.867 665.6 537.6 648.533L499.2 648.533C499.2 678.4 512 704 533.333 716.8 554.667 725.333 576 729.6 605.867 729.6Z" fill="#FFFFFF"/><path d="M640 85.3333 896 341.333 725.333 341.333C678.4 341.333 640 302.933 640 256L640 85.3333Z" fill="#070A1A" fill-opacity="0.2"/></svg>