<svg width="128" height="128" viewBox="0 0 1024 1024" xmlns="http://www.w3.org/2000/svg" xmlns:xlink="http://www.w3.org/1999/xlink" overflow="hidden"><defs></defs><defs></defs><path d="M1003.52 447.386 927.846 447.386 927.846 245.76 688.947 0 154.624 0C120.692-2.07776e-15 93.184 27.5076 93.184 61.44L93.184 447.386 20.48 447.386C9.16921 447.386-3.87988e-14 456.555 0 467.866L0 872.346C1.38517e-15 883.656 9.16921 892.826 20.48 892.826L93.184 892.826 93.184 962.56C93.184 996.492 120.692 1024 154.624 1024L866.406 1024C900.339 1024 927.846 996.492 927.846 962.56L927.846 892.826 1003.52 892.826C1014.83 892.826 1024 883.656 1024 872.346L1024 467.866C1024 456.555 1014.83 447.386 1003.52 447.386M164.864 71.68 655.36 71.68 655.36 271.565 856.166 271.565 856.166 447.386 164.864 447.386 164.864 71.68M748.544 687.616C735.516 682.14 722.181 677.421 708.608 673.485 692.442 668.729 676.689 662.667 661.504 655.36 646.259 646.377 637.204 629.724 637.952 612.045 637.228 594.087 645.972 577.064 660.992 567.194 677.046 556.198 696.232 550.701 715.674 551.526 735.766 550.307 755.692 555.82 772.301 567.194 787.598 580.208 796.614 599.133 797.082 619.213L763.597 619.213C761.835 608.1 756.127 597.993 747.52 590.746 737.496 584.174 725.576 581.113 713.626 582.042 703.438 581.466 693.267 583.437 684.032 587.776 675.716 591.956 670.714 600.71 671.334 609.997 671.403 619.625 677.203 628.285 686.08 632.013 697.426 637.211 709.13 641.591 721.101 645.12 739.681 650.335 757.692 657.402 774.861 666.214 791.67 675.486 801.96 693.306 801.587 712.499 802.236 730.33 794.178 747.363 779.981 758.17 761.881 770.302 740.287 776.132 718.541 774.758 697.656 775.976 676.917 770.604 659.251 759.398 641.775 746.769 632.388 726.835 631.091 699.597L664.474 699.597C665.254 712.972 671.247 725.508 681.165 734.515 692.302 741.548 705.405 744.814 718.541 743.834 730.898 744.437 743.195 741.752 754.176 736.051 762.379 732.014 767.693 723.787 768 714.65 767.561 702.57 759.94 691.925 748.646 687.616L748.544 687.616M553.984 687.616C540.956 682.14 527.621 677.421 514.048 673.485 497.952 668.719 482.267 662.657 467.149 655.36 451.903 646.377 442.849 629.724 443.597 612.045 442.872 594.087 451.617 577.064 466.637 567.194 482.691 556.198 501.877 550.701 521.318 551.526 541.411 550.307 561.337 555.82 577.946 567.194 593.243 580.208 602.259 599.133 602.726 619.213L569.242 619.213C567.426 608.07 561.643 597.96 552.96 590.746 542.936 584.174 531.016 581.113 519.066 582.042 508.878 581.466 498.707 583.437 489.472 587.776 481.156 591.956 476.154 600.71 476.774 609.997 476.843 619.625 482.643 628.285 491.52 632.013 502.9 637.215 514.637 641.596 526.643 645.12 545.224 650.335 563.234 657.402 580.403 666.214 597.212 675.486 607.502 693.306 607.13 712.499 607.779 730.33 599.72 747.363 585.523 758.17 567.423 770.302 545.83 776.132 524.083 774.758 503.199 775.976 482.46 770.604 464.794 759.398 447.317 746.769 437.931 726.835 436.634 699.597L471.04 699.597C471.821 712.972 477.813 725.508 487.731 734.515 498.869 741.548 511.972 744.814 525.107 743.834 537.465 744.437 549.761 741.752 560.742 736.051 568.51 731.714 573.356 723.546 573.44 714.65 573.035 702.621 565.504 691.989 554.291 687.616L553.984 687.616M270.746 721.92C282.62 737.095 301.301 745.321 320.512 743.834 333.419 744.353 346.112 740.411 356.454 732.672 367.093 723.01 374.285 710.138 376.934 696.013L409.6 696.013C406.313 718.92 394.857 739.868 377.344 754.995 361.408 768.311 341.17 775.373 320.41 774.861 286.276 774.861 260.779 763.631 243.917 741.171 228.254 718.426 220.582 691.126 222.106 663.552 220.734 635.763 228.74 608.319 244.838 585.626 262.686 562.565 290.792 549.835 319.898 551.629 341.587 550.735 362.856 557.8 379.699 571.494 394.886 584.724 404.536 603.185 406.733 623.206L373.965 623.206C371.509 610.961 364.663 600.036 354.714 592.486 344.237 585.657 331.879 582.29 319.386 582.861 300.257 581.623 281.852 590.38 270.746 606.003 259.899 623.157 254.739 643.295 256 663.552 254.738 684.067 259.892 704.466 270.746 721.92M856.166 952.32 164.864 952.32 164.864 892.826 856.166 892.826 856.166 952.32" fill="#33C0FB"/></svg>